<svg width="252" height="26" viewBox="0 0 252 26" fill="none" xmlns="http://www.w3.org/2000/svg">
<rect width="6.8678" height="1.71695" transform="matrix(-0.718931 0.695081 0.718931 0.695081 4.9375 19.6533)" fill="#C283F3"/>
<path fill-rule="evenodd" clip-rule="evenodd" d="M12.0969 22C7.53041 22 3.99692 18.3229 3.99692 14C3.99692 9.67715 7.53041 6 12.0969 6C16.6634 6 20.1969 9.67715 20.1969 14C20.1969 18.3229 16.6634 22 12.0969 22ZM12.0969 24C6.57408 24 2.09692 19.5228 2.09692 14C2.09692 8.47715 6.57408 4 12.0969 4C17.6198 4 22.0969 8.47715 22.0969 14C22.0969 19.5228 17.6198 24 12.0969 24Z" fill="#C283F3"/>
<rect x="33.0969" y="25" width="218" height="1" fill="#C283F3"/>
</svg>
